<svg width="534" height="135" viewBox="0 0 534 135" fill="none" xmlns="http://www.w3.org/2000/svg">
<g clip-path="url(#clip0_104_1698)">
<path d="M58.8566 0L0.401611 33.75V101.25L58.8566 135L117.312 101.25V33.75L58.8566 0ZM92.5472 86.9454L58.8674 106.391L25.1876 86.9454V48.0546L58.8674 28.6092L92.5472 48.0546V86.9454Z" fill="#0847F7"/>
<path d="M181.447 101.32C175.642 101.32 170.442 99.9917 165.863 97.3187C161.278 94.6511 157.66 90.8009 155.009 85.7573C152.358 80.7137 151.035 74.6441 151.035 67.5431C151.035 60.4421 152.374 54.2753 155.036 49.2155C157.704 44.1611 161.332 40.3055 165.933 37.6541C170.529 35.0027 175.702 33.6797 181.453 33.6797C185.19 33.6797 188.678 34.2143 191.886 35.2727C195.099 36.3311 197.955 37.8701 200.461 39.8897C202.966 41.9093 205.002 44.3771 206.584 47.2931C208.161 50.2091 209.182 53.5247 209.657 57.2453H196.616C196.319 55.3607 195.747 53.6759 194.893 52.1801C194.035 50.6951 192.955 49.4261 191.648 48.3785C190.336 47.3309 188.845 46.5371 187.188 45.9917C185.519 45.4463 183.705 45.1763 181.728 45.1763C178.251 45.1763 175.189 46.0457 172.532 47.7845C169.881 49.5233 167.807 52.0559 166.322 55.3877C164.832 58.7141 164.086 62.7749 164.086 67.5431C164.086 72.3113 164.837 76.4531 166.338 79.7687C167.845 83.0843 169.908 85.5845 172.548 87.2801C175.189 88.9757 178.234 89.8235 181.674 89.8235C183.591 89.8235 185.373 89.5643 187.02 89.0459C188.667 88.5329 190.152 87.7769 191.464 86.7887C192.771 85.8059 193.873 84.5963 194.758 83.1653C195.644 81.7343 196.265 80.0927 196.616 78.2405H209.657C209.274 81.3293 208.356 84.2669 206.898 87.0371C205.44 89.8019 203.496 92.2589 201.06 94.3919C198.63 96.5303 195.768 98.2097 192.485 99.4571C189.196 100.694 185.519 101.315 181.458 101.315V101.331L181.447 101.32Z" fill="#0847F7"/>
<path d="M229.281 71.6741V100.408H216.639V34.5383H228.93V59.5997H229.551C230.695 56.7431 232.499 54.4859 234.945 52.8335C237.386 51.1865 240.502 50.3549 244.271 50.3549C247.689 50.3549 250.686 51.0893 253.24 52.5635C255.805 54.0377 257.798 56.1599 259.207 58.9301C260.622 61.6949 261.324 65.0483 261.324 68.9687V100.397H248.634V71.0909C248.634 67.9049 247.824 65.4263 246.204 63.6389C244.584 61.8569 242.295 60.9659 239.352 60.9659C237.375 60.9659 235.636 61.3925 234.135 62.2511C232.629 63.1097 231.446 64.3247 230.577 65.8961C229.707 67.4783 229.275 69.3899 229.275 71.6687V71.6795L229.281 71.6741Z" fill="#0847F7"/>
<path d="M283.794 101.385C280.64 101.385 277.821 100.823 275.332 99.7055C272.843 98.5823 270.882 96.9245 269.451 94.7321C268.02 92.5397 267.307 89.8181 267.307 86.5781C267.307 83.8134 267.815 81.5075 268.836 79.677C269.856 77.8463 271.239 76.3722 272.994 75.2381C274.749 74.1041 276.73 73.2456 278.961 72.6731C281.185 72.1007 283.524 71.6957 285.965 71.4581C288.854 71.1611 291.181 70.8912 292.952 70.6428C294.723 70.3944 296.008 69.9947 296.818 69.4493C297.628 68.9039 298.033 68.0993 298.033 67.041V66.8195C298.033 64.6055 297.353 62.8883 296.003 61.6679C294.648 60.4475 292.714 59.832 290.209 59.832C287.557 59.832 285.451 60.4097 283.885 61.5815C282.325 62.7425 281.283 64.1519 280.748 65.7989L268.987 64.5138C269.721 61.5114 271.061 58.9517 272.988 56.8457C274.916 54.7397 277.341 53.1305 280.257 52.0235C283.173 50.9165 286.488 50.3604 290.203 50.3604C292.768 50.3604 295.269 50.6628 297.699 51.2676C300.129 51.867 302.321 52.8281 304.287 54.1457C306.242 55.4579 307.813 57.1913 308.968 59.3405C310.129 61.4951 310.718 64.1142 310.718 67.2137V100.408H298.611V93.5549H298.26C297.488 95.0237 296.467 96.3576 295.166 97.5401C293.87 98.7227 292.277 99.6515 290.393 100.348C288.508 101.045 286.31 101.39 283.805 101.39H283.788L283.794 101.385ZM287.233 92.367C289.415 92.367 291.316 91.9349 292.936 91.0655C294.556 90.1961 295.825 89.0351 296.738 87.5771C297.65 86.1191 298.109 84.5045 298.109 82.7388V77.2091C297.699 77.5061 297.089 77.7708 296.3 78.0084C295.501 78.246 294.605 78.4619 293.6 78.6509C292.601 78.8399 291.607 79.0073 290.635 79.1585C289.663 79.3043 288.794 79.4232 288.027 79.5096C286.348 79.7472 284.868 80.1305 283.583 80.6543C282.298 81.1889 281.288 81.9071 280.554 82.8197C279.819 83.7323 279.447 84.8825 279.447 86.2703C279.447 88.2737 280.176 89.7911 281.634 90.8279C283.092 91.8593 284.955 92.3723 287.223 92.3723H287.228L287.233 92.367Z" fill="#0847F7"/>
<path d="M319.023 100.413V50.9922H331.665V100.413H319.023Z" fill="#0847F7"/>
<path d="M352.622 71.6741V100.408H339.981V50.9814H352.401V59.5998H352.935C354.053 56.7702 355.83 54.5237 358.26 52.8551C360.69 51.1865 363.746 50.3604 367.434 50.3604C370.852 50.3604 373.839 51.0947 376.382 52.5689C378.931 54.0377 380.907 56.1707 382.311 58.9517C383.71 61.7381 384.412 65.0753 384.412 68.9633V100.391H371.77V71.0855C371.77 67.9319 370.955 65.4533 369.319 63.6605C367.688 61.8677 365.436 60.9605 362.574 60.9605C360.63 60.9605 358.908 61.3871 357.423 62.2457C355.932 63.1043 354.766 64.3193 353.907 65.8907C353.049 67.4729 352.627 69.3846 352.627 71.6634V71.6741H352.622Z" fill="#0847F7"/>
<path d="M405.358 31.2983V100.413H392.717V31.2983H405.358Z" fill="#0847F7"/>
<path d="M413.669 100.413V50.9922H426.31V100.413H413.669Z" fill="#0847F7"/>
<path d="M447.262 71.6741V100.408H434.621V50.9814H447.041V59.5998H447.576C448.693 56.7702 450.47 54.5237 452.9 52.8551C455.33 51.1865 458.386 50.3604 462.075 50.3604C465.493 50.3604 468.479 51.0947 471.028 52.5689C473.577 54.0377 475.553 56.1707 476.952 58.9517C478.35 61.7381 479.052 65.0753 479.052 68.9633V100.391H466.411V71.0855C466.411 67.9319 465.595 65.4533 463.959 63.6605C462.328 61.8677 460.077 60.9605 457.215 60.9605C455.271 60.9605 453.548 61.3871 452.063 62.2457C450.573 63.1043 449.406 64.3193 448.548 65.8907C447.689 67.4729 447.262 69.3846 447.262 71.6634V71.6741Z" fill="#0847F7"/>
<path d="M518.262 100.413H533.252L513.515 72.3923L532.231 50.9867H517.56L500.798 70.3079H500.01V34.5383H487.363V100.413H500.01V84.2777L503.973 79.8821L518.262 100.408V100.413Z" fill="#0847F7"/>
<path d="M331.773 31.2983H319.131V43.9397H331.773V31.2983Z" fill="#0847F7"/>
<path d="M426.418 31.2983H413.777V43.9397H426.418V31.2983Z" fill="#0847F7"/>
</g>
<defs>
<clipPath id="clip0_104_1698">
<rect width="532.85" height="135" fill="white" transform="translate(0.401611)"/>
</clipPath>
</defs>
</svg>
